<svg width="24" height="24" viewBox="0 0 24 24" fill="none" xmlns="http://www.w3.org/2000/svg">
<mask id="mask0_267_3049" style="mask-type:alpha" maskUnits="userSpaceOnUse" x="0" y="0" width="24" height="24">
<rect width="24" height="24" transform="matrix(-1 0 0 1 24 0)" fill="#D9D9D9"/>
</mask>
<g mask="url(#mask0_267_3049)">
<path d="M9.7 18.3C9.88333 18.1167 9.975 17.8834 9.975 17.6C9.975 17.3167 9.88333 17.0834 9.7 16.9L5.8 13H21C21.2833 13 21.5208 12.9042 21.7125 12.7125C21.9042 12.5209 22 12.2834 22 12C22 11.7167 21.9042 11.4792 21.7125 11.2875C21.5208 11.0959 21.2833 11 21 11H5.8L9.7 7.10005C9.88333 6.91672 9.975 6.68338 9.975 6.40005C9.975 6.11672 9.88333 5.88338 9.7 5.70005C9.51667 5.51672 9.28333 5.42505 9 5.42505C8.71667 5.42505 8.48333 5.51672 8.3 5.70005L2.7 11.3C2.6 11.4 2.52917 11.5084 2.4875 11.625C2.44583 11.7417 2.425 11.8667 2.425 12C2.425 12.1334 2.44583 12.2584 2.4875 12.375C2.52917 12.4917 2.6 12.6 2.7 12.7L8.3 18.3C8.48333 18.4834 8.71667 18.575 9 18.575C9.28333 18.575 9.51667 18.4834 9.7 18.3Z" fill="#727586"/>
</g>
</svg>
