<svg width="48" height="49" viewBox="0 0 48 49" fill="none" xmlns="http://www.w3.org/2000/svg">
<rect y="0.5" width="48" height="48" rx="24" fill="white" fill-opacity="0.1"/>
<path d="M24.0039 20.0078C21.5404 20.0078 19.5533 22.0117 19.5533 24.4961C19.5533 26.9805 21.5404 28.9844 24.0039 28.9844C26.4674 28.9844 28.4544 26.9805 28.4544 24.4961C28.4544 22.0117 26.4674 20.0078 24.0039 20.0078ZM24.0039 27.4141C22.4119 27.4141 21.1104 26.1055 21.1104 24.4961C21.1104 22.8867 22.408 21.5781 24.0039 21.5781C25.5997 21.5781 26.8973 22.8867 26.8973 24.4961C26.8973 26.1055 25.5958 27.4141 24.0039 27.4141ZM29.6746 19.8242C29.6746 20.4062 29.2098 20.8711 28.6365 20.8711C28.0593 20.8711 27.5984 20.4023 27.5984 19.8242C27.5984 19.2461 28.0632 18.7773 28.6365 18.7773C29.2098 18.7773 29.6746 19.2461 29.6746 19.8242ZM32.6222 20.8867C32.5564 19.4844 32.2388 18.2422 31.2201 17.2187C30.2052 16.1953 28.9735 15.875 27.5829 15.8047C26.1497 15.7227 21.8541 15.7227 20.4209 15.8047C19.0343 15.8711 17.8025 16.1914 16.7838 17.2148C15.7651 18.2383 15.4513 19.4805 15.3816 20.8828C15.3003 22.3281 15.3003 26.6602 15.3816 28.1055C15.4475 29.5078 15.7651 30.75 16.7838 31.7734C17.8025 32.7969 19.0304 33.1172 20.4209 33.1875C21.8541 33.2695 26.1497 33.2695 27.5829 33.1875C28.9735 33.1211 30.2052 32.8008 31.2201 31.7734C32.2349 30.75 32.5525 29.5078 32.6222 28.1055C32.7036 26.6602 32.7036 22.332 32.6222 20.8867ZM30.7707 29.6562C30.4686 30.4219 29.8837 31.0117 29.1207 31.3203C27.978 31.7773 25.2666 31.6719 24.0039 31.6719C22.7411 31.6719 20.0259 31.7734 18.8871 31.3203C18.1279 31.0156 17.543 30.4258 17.237 29.6562C16.7838 28.5039 16.8884 25.7695 16.8884 24.4961C16.8884 23.2227 16.7877 20.4844 17.237 19.3359C17.5391 18.5703 18.124 17.9805 18.8871 17.6719C20.0297 17.2148 22.7411 17.3203 24.0039 17.3203C25.2666 17.3203 27.9819 17.2187 29.1207 17.6719C29.8799 17.9766 30.4647 18.5664 30.7707 19.3359C31.2239 20.4883 31.1193 23.2227 31.1193 24.4961C31.1193 25.7695 31.2239 28.5078 30.7707 29.6562Z" fill="#36344D"/>
</svg>
