<svg width="48" height="48" viewBox="0 0 48 48" fill="none" xmlns="http://www.w3.org/2000/svg">
<rect width="48" height="48" rx="24" fill="#36344D" fill-opacity="0.1"/>
<path d="M24.0039 19.5078C21.5404 19.5078 19.5534 21.5117 19.5534 23.9961C19.5534 26.4805 21.5404 28.4844 24.0039 28.4844C26.4674 28.4844 28.4545 26.4805 28.4545 23.9961C28.4545 21.5117 26.4674 19.5078 24.0039 19.5078ZM24.0039 26.9141C22.412 26.9141 21.1105 25.6055 21.1105 23.9961C21.1105 22.3867 22.4081 21.0781 24.0039 21.0781C25.5998 21.0781 26.8974 22.3867 26.8974 23.9961C26.8974 25.6055 25.5959 26.9141 24.0039 26.9141ZM29.6746 19.3242C29.6746 19.9062 29.2098 20.3711 28.6365 20.3711C28.0594 20.3711 27.5985 19.9023 27.5985 19.3242C27.5985 18.7461 28.0633 18.2773 28.6365 18.2773C29.2098 18.2773 29.6746 18.7461 29.6746 19.3242ZM32.6223 20.3867C32.5564 18.9844 32.2388 17.7422 31.2201 16.7187C30.2053 15.6953 28.9735 15.375 27.583 15.3047C26.1498 15.2227 21.8542 15.2227 20.421 15.3047C19.0343 15.3711 17.8026 15.6914 16.7839 16.7148C15.7652 17.7383 15.4514 18.9805 15.3817 20.3828C15.3003 21.8281 15.3003 26.1602 15.3817 27.6055C15.4475 29.0078 15.7652 30.25 16.7839 31.2734C17.8026 32.2969 19.0305 32.6172 20.421 32.6875C21.8542 32.7695 26.1498 32.7695 27.583 32.6875C28.9735 32.6211 30.2053 32.3008 31.2201 31.2734C32.235 30.25 32.5526 29.0078 32.6223 27.6055C32.7036 26.1602 32.7036 21.832 32.6223 20.3867ZM30.7708 29.1562C30.4687 29.9219 29.8838 30.5117 29.1207 30.8203C27.9781 31.2773 25.2667 31.1719 24.0039 31.1719C22.7412 31.1719 20.0259 31.2734 18.8871 30.8203C18.1279 30.5156 17.5431 29.9258 17.2371 29.1562C16.7839 28.0039 16.8884 25.2695 16.8884 23.9961C16.8884 22.7227 16.7877 19.9844 17.2371 18.8359C17.5392 18.0703 18.1241 17.4805 18.8871 17.1719C20.0298 16.7148 22.7412 16.8203 24.0039 16.8203C25.2667 16.8203 27.9819 16.7187 29.1207 17.1719C29.8799 17.4766 30.4648 18.0664 30.7708 18.8359C31.224 19.9883 31.1194 22.7227 31.1194 23.9961C31.1194 25.2695 31.224 28.0078 30.7708 29.1562Z" fill="#36344D"/>
</svg>
