<svg width="128" height="24" viewBox="0 0 128 24" fill="none" xmlns="http://www.w3.org/2000/svg">
<g clip-path="url(#clip0_214_56)">
<mask id="mask0_214_56" style="mask-type:luminance" maskUnits="userSpaceOnUse" x="0" y="0" width="24" height="24">
<path d="M24 0H0V24H24V0Z" fill="white"/>
</mask>
<g mask="url(#mask0_214_56)">
<path fill-rule="evenodd" clip-rule="evenodd" d="M12 0H0L12 12H0L12 24H24L12 12H24L12 0Z" fill="url(#paint0_linear_214_56)"/>
</g>
</g>
<path d="M46.9858 8.56534C46.9176 7.87784 46.625 7.34375 46.108 6.96307C45.5909 6.58239 44.8892 6.39204 44.0028 6.39204C43.4006 6.39204 42.892 6.47727 42.4773 6.64773C42.0625 6.8125 41.7443 7.04261 41.5227 7.33807C41.3068 7.63352 41.1989 7.96875 41.1989 8.34375C41.1875 8.65625 41.2528 8.92898 41.3949 9.16193C41.5426 9.39489 41.7443 9.59659 42 9.76705C42.2557 9.93182 42.5511 10.0767 42.8864 10.2017C43.2216 10.321 43.5795 10.4233 43.9602 10.5085L45.5284 10.8835C46.2898 11.054 46.9886 11.2812 47.625 11.5653C48.2614 11.8494 48.8125 12.1989 49.2784 12.6136C49.7443 13.0284 50.1051 13.517 50.3608 14.0795C50.6222 14.642 50.7557 15.2869 50.7614 16.0142C50.7557 17.0824 50.483 18.0085 49.9432 18.7926C49.4091 19.571 48.6364 20.1761 47.625 20.608C46.6193 21.0341 45.4063 21.2472 43.9858 21.2472C42.5767 21.2472 41.3494 21.0312 40.304 20.5994C39.2642 20.1676 38.4517 19.5284 37.8665 18.6818C37.2869 17.8295 36.983 16.7756 36.9545 15.5199H40.5256C40.5653 16.1051 40.733 16.5937 41.0284 16.9858C41.3295 17.3722 41.7301 17.6648 42.2301 17.8636C42.7358 18.0568 43.3068 18.1534 43.9432 18.1534C44.5682 18.1534 45.1108 18.0625 45.571 17.8807C46.0369 17.6989 46.3977 17.446 46.6534 17.1222C46.9091 16.7983 47.0369 16.4261 47.0369 16.0057C47.0369 15.6136 46.9205 15.2841 46.6875 15.017C46.4602 14.75 46.125 14.5227 45.6818 14.3352C45.2443 14.1477 44.7074 13.9773 44.071 13.8239L42.1705 13.3466C40.6989 12.9886 39.5369 12.429 38.6847 11.6676C37.8324 10.9062 37.4091 9.88068 37.4148 8.59091C37.4091 7.53409 37.6903 6.6108 38.2585 5.82102C38.8324 5.03125 39.6193 4.41477 40.6193 3.97159C41.6193 3.52841 42.7557 3.30682 44.0284 3.30682C45.3239 3.30682 46.4545 3.52841 47.4205 3.97159C48.392 4.41477 49.1477 5.03125 49.6875 5.82102C50.2273 6.6108 50.5057 7.52557 50.5227 8.56534H46.9858ZM53.0036 21V3.54545H56.6939V10.7472H64.1854V3.54545H67.8672V21H64.1854V13.7898H56.6939V21H53.0036ZM73.6784 21H69.7238L75.7494 3.54545H80.5051L86.5221 21H82.5676L78.1954 7.53409H78.0591L73.6784 21ZM73.4312 14.1392H82.7721V17.0199H73.4312V14.1392ZM90.5541 21L85.5598 3.54545H89.5911L92.4803 15.6733H92.6252L95.8127 3.54545H99.2644L102.443 15.6989H102.597L105.486 3.54545H109.517L104.523 21H100.926L97.6024 9.58807H97.4661L94.1507 21H90.5541ZM125.852 3.54545V21H122.664L115.071 10.0142H114.943V21H111.252V3.54545H114.491L122.025 14.5227H122.178V3.54545H125.852Z" fill="#36344D"/>
<defs>
<linearGradient id="paint0_linear_214_56" x1="2.46" y1="1.92" x2="12" y2="24" gradientUnits="userSpaceOnUse">
<stop stop-color="#ACAAFF"/>
<stop offset="1" stop-color="#C0E8FF"/>
</linearGradient>
<clipPath id="clip0_214_56">
<rect width="24" height="24" fill="white"/>
</clipPath>
</defs>
</svg>
