<svg width="48" height="49" viewBox="0 0 48 49" fill="none" xmlns="http://www.w3.org/2000/svg">
<rect y="0.5" width="48" height="48" rx="24" fill="white" fill-opacity="0.1"/>
<path d="M31.9441 20.4261C31.9568 20.6038 31.9568 20.7815 31.9568 20.9591C31.9568 26.3779 27.8325 32.6216 20.2944 32.6216C17.9721 32.6216 15.8147 31.9489 14 30.7815C14.33 30.8195 14.6472 30.8322 14.9898 30.8322C16.9061 30.8322 18.67 30.185 20.0787 29.081C18.2766 29.0429 16.7665 27.8627 16.2462 26.2383C16.5 26.2764 16.7538 26.3018 17.0203 26.3018C17.3883 26.3018 17.7564 26.251 18.099 26.1622C16.2208 25.7814 14.8121 24.1317 14.8121 22.1393V22.0886C15.3578 22.3932 15.9924 22.5835 16.6649 22.6089C15.5609 21.8728 14.8375 20.6165 14.8375 19.1952C14.8375 18.4338 15.0405 17.7358 15.3959 17.1266C17.4137 19.6139 20.4467 21.2383 23.8477 21.416C23.7842 21.1114 23.7461 20.7942 23.7461 20.4769C23.7461 18.218 25.5736 16.3779 27.8451 16.3779C29.0253 16.3779 30.0913 16.8729 30.84 17.6723C31.7664 17.4947 32.6547 17.152 33.4416 16.6825C33.137 17.6343 32.4898 18.4338 31.6395 18.9414C32.4644 18.8526 33.2639 18.6241 33.9999 18.3069C33.4416 19.119 32.7436 19.8423 31.9441 20.4261Z" fill="#36344D"/>
</svg>
