<svg width="48" height="48" viewBox="0 0 48 48" fill="none" xmlns="http://www.w3.org/2000/svg">
<rect width="48" height="48" rx="24" fill="#36344D" fill-opacity="0.1"/>
<path d="M31.9441 19.9261C31.9568 20.1038 31.9568 20.2815 31.9568 20.4591C31.9568 25.8779 27.8325 32.1216 20.2944 32.1216C17.9721 32.1216 15.8147 31.4489 14 30.2815C14.33 30.3195 14.6472 30.3322 14.9898 30.3322C16.9061 30.3322 18.67 29.685 20.0787 28.581C18.2766 28.5429 16.7665 27.3627 16.2462 25.7383C16.5 25.7764 16.7538 25.8018 17.0203 25.8018C17.3883 25.8018 17.7564 25.751 18.099 25.6622C16.2208 25.2814 14.8121 23.6317 14.8121 21.6393V21.5886C15.3578 21.8932 15.9924 22.0835 16.6649 22.1089C15.5609 21.3728 14.8375 20.1165 14.8375 18.6952C14.8375 17.9338 15.0405 17.2358 15.3959 16.6266C17.4137 19.1139 20.4467 20.7383 23.8477 20.916C23.7842 20.6114 23.7461 20.2942 23.7461 19.9769C23.7461 17.718 25.5736 15.8779 27.8451 15.8779C29.0253 15.8779 30.0913 16.3729 30.84 17.1723C31.7664 16.9947 32.6547 16.652 33.4416 16.1825C33.137 17.1343 32.4898 17.9338 31.6395 18.4414C32.4644 18.3526 33.2639 18.1241 33.9999 17.8069C33.4416 18.619 32.7436 19.3423 31.9441 19.9261Z" fill="#36344D"/>
</svg>
