<svg width="48" height="48" viewBox="0 0 48 48" fill="none" xmlns="http://www.w3.org/2000/svg">
<rect width="48" height="48" rx="24" fill="#36344D" fill-opacity="0.1"/>
<path d="M33.0851 19.495C32.867 18.6867 32.2244 18.05 31.4085 17.834C29.9297 17.4414 23.9998 17.4414 23.9998 17.4414C23.9998 17.4414 18.0699 17.4414 16.5911 17.834C15.7752 18.0501 15.1327 18.6867 14.9146 19.495C14.5183 20.9602 14.5183 24.0172 14.5183 24.0172C14.5183 24.0172 14.5183 27.0741 14.9146 28.5393C15.1327 29.3477 15.7752 29.9578 16.5911 30.1738C18.0699 30.5664 23.9998 30.5664 23.9998 30.5664C23.9998 30.5664 29.9297 30.5664 31.4085 30.1738C32.2244 29.9578 32.867 29.3477 33.0851 28.5393C33.4813 27.0741 33.4813 24.0172 33.4813 24.0172C33.4813 24.0172 33.4813 20.9602 33.0851 19.495ZM22.0604 26.7927V21.2417L27.0166 24.0172L22.0604 26.7927Z" fill="#36344D"/>
</svg>
