<svg width="48" height="49" viewBox="0 0 48 49" fill="none" xmlns="http://www.w3.org/2000/svg">
<rect y="0.5" width="48" height="48" rx="24" fill="white" fill-opacity="0.1"/>
<path d="M33.0851 19.995C32.867 19.1867 32.2244 18.55 31.4085 18.334C29.9297 17.9414 23.9998 17.9414 23.9998 17.9414C23.9998 17.9414 18.0699 17.9414 16.5911 18.334C15.7752 18.5501 15.1327 19.1867 14.9146 19.995C14.5183 21.4602 14.5183 24.5172 14.5183 24.5172C14.5183 24.5172 14.5183 27.5741 14.9146 29.0393C15.1327 29.8477 15.7752 30.4578 16.5911 30.6738C18.0699 31.0664 23.9998 31.0664 23.9998 31.0664C23.9998 31.0664 29.9297 31.0664 31.4085 30.6738C32.2244 30.4578 32.867 29.8477 33.0851 29.0393C33.4813 27.5741 33.4813 24.5172 33.4813 24.5172C33.4813 24.5172 33.4813 21.4602 33.0851 19.995ZM22.0604 27.2927V21.7417L27.0166 24.5172L22.0604 27.2927Z" fill="#36344D"/>
</svg>
